<?xml version="1.0" encoding="iso-8859-1"?>
<!-- Generator: Adobe Illustrator 19.0.0, SVG Export Plug-In . SVG Version: 6.00 Build 0)  -->
<svg version="1.1" id="Capa_1" xmlns="http://www.w3.org/2000/svg" xmlns:xlink="http://www.w3.org/1999/xlink" x="0px" y="0px"
	 viewBox="0 0 512 512" style="enable-background:new 0 0 512 512;" xml:space="preserve">
<path style="fill:#57555C;" d="M391,255v45H121v-45c0-41.4,33.6-75,75-75h120C357.4,180,391,213.6,391,255z"/>
<path style="fill:#3C3A41;" d="M391,255v45H256V180h60C357.4,180,391,213.6,391,255z"/>
<path style="fill:#FEDBAB;" d="M361,90v45c0,57.9-47.1,105-105,105s-105-47.1-105-105v-30l105-33.6L292,60L361,90z"/>
<g>
	<path style="fill:#FEC478;" d="M361,90v45c0,57.9-47.1,105-105,105V71.4L292,60L361,90z"/>
	<path style="fill:#FEC478;" d="M75,390H60c-33.091,0-60-26.909-60-60s26.909-60,60-60h15c8.291,0,15,6.709,15,15v90
		C90,383.291,83.291,390,75,390z"/>
</g>
<path style="fill:#FEB756;" d="M451,390h-15c-8.291,0-15-6.709-15-15v-90c0-8.291,6.709-15,15-15h15c33.091,0,61,26.909,61,60
	S484.091,390,451,390z"/>
<path style="fill:#17ACE8;" d="M444.699,212.699c-3.9-2.699-9-3.6-13.499-1.8l-175.2,58.2l-176.201-58.2
	c-4.499-1.8-9.598-0.899-13.499,1.8C62.401,215.7,60,220.199,60,225v212c0,6.599,4.2,12.299,10.201,14.099l181,60
	C252.7,511.7,254.5,512,256,512s3.3-0.3,4.799-0.901l180-60c6-1.8,10.201-7.5,10.201-14.099V225
	C451,220.199,448.599,215.7,444.699,212.699z"/>
<path style="fill:#1689FC;" d="M451,225v212c0,6.599-4.2,12.299-10.201,14.099l-180,60C259.3,511.7,257.5,512,256,512V269.099
	l175.201-58.2c4.499-1.8,9.598-0.899,13.499,1.8C448.599,215.7,451,220.199,451,225z"/>
<path style="fill:#E5E5E5;" d="M196,343.242c-1.567,0-3.164-0.249-4.746-0.776l-60-19.995c-7.852-2.607-12.1-11.104-9.478-18.97
	c2.622-7.852,11.016-12.1,18.97-9.478l60,19.995c7.852,2.607,12.1,11.104,9.478,18.97C208.129,339.272,202.284,343.242,196,343.242z
	"/>
<path style="fill:#D9D9D9;" d="M316,343.242c-6.284,0-12.129-3.97-14.224-10.254c-2.622-7.866,1.626-16.362,9.478-18.97l60-19.995
	c7.939-2.622,16.362,1.626,18.97,9.478c2.622,7.866-1.626,16.362-9.478,18.97l-60,19.995
	C319.164,342.993,317.567,343.242,316,343.242z"/>
<path style="fill:#FEA832;" d="M359.5,60C352.599,25.8,322.3,0,286,0H136c-8.401,0-15,6.599-15,15v30c0,24.6,11.7,46.199,30,60
	c12.299,9.3,28.2,15,45,15h17.701c14.399,0,28.799-2.701,42.299-8.101C269.2,106.8,281.499,99.6,292,90h69V75
	C361,69.899,360.399,64.799,359.5,60z"/>
<path style="fill:#FE9923;" d="M292,90c-10.501,9.6-22.8,16.8-36,21.899V0h30c36.301,0,66.599,25.8,73.5,60
	c0.899,4.799,1.5,9.899,1.5,15v15H292z"/>
<g>
</g>
<g>
</g>
<g>
</g>
<g>
</g>
<g>
</g>
<g>
</g>
<g>
</g>
<g>
</g>
<g>
</g>
<g>
</g>
<g>
</g>
<g>
</g>
<g>
</g>
<g>
</g>
<g>
</g>
</svg>
