<svg id="Layer_1" data-name="Layer 1" xmlns="http://www.w3.org/2000/svg" viewBox="0 0 1236.8 960.12">
  <defs>
    <style>
      .cls-1 {
        fill: #ffda44;
      }
    </style>
  </defs>
  <title>capa [Recovered]</title>
  <g id="Fundo">
    <path class="cls-1" d="M1124.78,541.14q-130.06,3-260.22,4.43Q732.47,547,600.47,547.1q-264.09.08-528.18-5.42L0,540.11c-2.32,0,46.5-56.13,46.5-56.13q65.67-70,132-139.35t133.52-138Q379.22,138,447.36,70.21q34.13-33.87,68.56-67.47l.71-.69c6.31-6.12,15.9,2.51,10.47,9.42l-.59.76Q496.81,50,466.76,87.54q-60.1,75-121.25,149T222.51,384Q162,455.87,100.75,527a2.68,2.68,0,0,1-4.48-.66L73.93,476.24a2.68,2.68,0,0,1,2.39-3.77q262.07-5.66,524.15-5.33,132,0,264.09,1.53t264.1,4.5l78.15,1.84a2.68,2.68,0,0,1,1.75,4.65l-56.33,51.88q-135,124.4-272.5,246.31Q810.9,838.74,741.25,898.74q-34.84,30-70,59.63h0c-6.54,5.51-15.24-3.51-9.51-9.85h0q30.86-34.12,62-67.88,62.37-67.54,125.62-134.16c42.68-45,211.27-218.85,252.85-260.85a2.68,2.68,0,0,1,4.39.88" transform="translate(27.38 0.04)"/>
    <path class="cls-1" d="M570-115.62" transform="translate(27.38 0.04)"/>
  </g>
  <polyline class="cls-1" points="553.89 12.27 232.43 470.09 176.15 471.06"/>
  <polyline class="cls-1" points="689.12 948.55 1004.36 544.08 1073.64 542.84"/>
  <polyline class="cls-1" points="27.42 540.14 0 573.12 981.73 573.12 1004.36 544.08"/>
</svg>
