<svg xmlns="http://www.w3.org/2000/svg" viewBox="0 0 1219.34 1081">
	<defs>
		<style>
			.cls-1{font-size:150px;}.cls-1,.cls-3{fill:#ebebeb;font-family:OCRAStd, OCR A Std;}.cls-2{fill:#363635;}.cls-3{font-size:36px;stroke:#ebebeb;stroke-miterlimit:10;}
		</style>
	</defs>

	<title>Capa - raio preto- 29 04 18</title>
	<g id="Fundo">
		<text class="cls-1" transform="translate(336.4 489.8)">POWER</text>

		<text class="cls-1" transform="translate(444.4 791.83)">TEC</text>

		<text x="-453.42" y="1"></text>

		<path class="cls-2" d="M1044.72-1c-19.36,25.61-39.07,50.89-58.87,76.1s-39.72,50.31-59.75,75.31q-60.1,75-121.25,149.05t-123,147.46Q620,520.32,557.34,593.05l-25.71-57.66q264.09-5.75,528.18-5.42,132,0,264.09,1.53T1588,536l84.77,2-61.2,56.37q-135.05,124.4-272.5,246.31-68.82,60.86-138.47,120.86-34.84,30-70,59.63c-23.45,19.76-46.95,39.47-70.78,58.83,20.18-23.14,40.7-45.93,61.27-68.68s41.25-45.36,62-67.88q62.37-67.54,125.62-134.16Q1435.2,676,1564.42,545.54L1588,603.88q-132,3.06-264.09,4.52t-264.09,1.53q-264.09.08-528.18-5.42l-78.21-1.7,52.5-56q65.67-70,132-139.35t133.52-138q67.16-68.66,135.3-136.42,34.09-33.87,68.52-67.43C998.28,43.27,1021.32,21,1044.72-1Z" transform="translate(-453.42 1)"/>
		
		<text class="cls-3" transform="translate(230.56 583)">Conheça o poder da tecnologia</text>
	</g>
</svg>