<svg id="Layer_1" data-name="Layer 1" xmlns="http://www.w3.org/2000/svg" viewBox="0 0 700.18 651.27">
  <defs>
    <style>
      .cls-1, .cls-2 {
        fill: #ffe066;
      }

      .cls-2 {
        stroke: #000;
        stroke-miterlimit: 10;
      }
    </style>
  </defs>
  <title>logo-recovered</title>
  <g id="Fundo">
    <path class="cls-1" d="M576.41,577.81H577" transform="translate(-242.51 -212.03)"/>
    <path class="cls-1" d="M576.7,569.08c-.14.41-.29.82-.43,1.24" transform="translate(-242.51 -212.03)"/>
  </g>
  <path class="cls-2" d="M966,525.12" transform="translate(-242.51 -212.03)"/>
  <path class="cls-1" d="M872.12,507.07l-413.93-.36a16.53,16.53,0,0,1-13.93-25.41L599.42,237.62c10.65-16.72-11.79-34.6-25.71-20.48l-326.4,331c-10.37,10.52-2.79,28.32,12,28.13l597.87-7.44a16.53,16.53,0,0,0,14.41-8.82l15.16-28.74A16.53,16.53,0,0,0,872.12,507.07Z" transform="translate(-242.51 -212.03)"/>
  <path class="cls-1" d="M313.08,568.27l413.93.36A16.53,16.53,0,0,1,740.93,594L585.78,837.72c-10.65,16.72,11.79,34.6,25.71,20.48l326.4-331c10.37-10.52,2.79-28.32-12-28.13L328,506.48a16.53,16.53,0,0,0-14.41,8.82L298.47,544A16.53,16.53,0,0,0,313.08,568.27Z" transform="translate(-242.51 -212.03)"/>
</svg>
