<svg id="Layer_1" data-name="Layer 1" xmlns="http://www.w3.org/2000/svg" viewBox="0 0 1219.34 1081"><defs><style>.cls-1{fill:#363635;}</style></defs><title>logo</title><g id="Fundo"><path class="cls-1" d="M591.3,0c-19.36,25.61-39.07,50.89-58.87,76.1s-39.72,50.31-59.75,75.31q-60.1,75-121.25,149.05t-123,147.46Q166.58,521.32,103.92,594L78.21,536.39Q342.3,530.64,606.39,531q132,0,264.09,1.53t264.1,4.5l84.77,2-61.2,56.37q-135,124.4-272.5,246.31-68.82,60.86-138.47,120.86-34.84,30-70,59.63c-23.45,19.76-46.95,39.47-70.78,58.83,20.18-23.14,40.7-45.93,61.27-68.68s41.25-45.36,62-67.88Q792,876.9,855.29,810.28,981.78,677,1111,546.54l23.58,58.34q-132,3.06-264.09,4.52T606.4,610.93q-264.09.08-528.18-5.42L0,603.81l52.5-56q65.67-70,132-139.35T318,270.46Q385.19,201.8,453.33,134q34.09-33.87,68.52-67.43C544.86,44.27,567.9,22,591.3,0Z" transform="translate(-0.01)"/></g></svg>