<?xml version="1.0" encoding="utf-8"?>
<!-- Generator: Adobe Illustrator 21.0.2, SVG Export Plug-In . SVG Version: 6.00 Build 0)  -->
<svg version="1.1" id="Layer_1" xmlns="http://www.w3.org/2000/svg" xmlns:xlink="http://www.w3.org/1999/xlink" x="0px" y="0px"
	 viewBox="0 0 1219.3 1081" style="enable-background:new 0 0 1219.3 1081;" xml:space="preserve">
<style type="text/css">
	.st0{fill:#FFE066;}
	.st1{fill:#FFE066;stroke:#000000;stroke-miterlimit:10;}
</style>
<title>logo</title>
<g id="Fundo">
	<path class="st0" d="M576.4,577.8c0.2,0,0.4,0,0.5,0"/>
	<path class="st0" d="M576.7,569.1c-0.1,0.4-0.3,0.8-0.4,1.2"/>
</g>
<path class="st1" d="M966,525.1"/>
<path class="st0" d="M872.1,507.1l-413.9-0.4c-13,0-20.9-14.4-13.9-25.4l155.1-243.7c10.6-16.7-11.8-34.6-25.7-20.5l-326.4,331
	c-10.4,10.5-2.8,28.3,12,28.1c199.3-2.5,398.6-5,597.9-7.4c6.1-0.1,11.6-3.5,14.4-8.8c5.1-9.6,10.1-19.2,15.2-28.7
	C892.5,520.3,884.6,507.1,872.1,507.1z"/>
<path class="st0" d="M313.1,568.3l413.9,0.4c13,0,20.9,14.4,13.9,25.4L585.8,837.7c-10.6,16.7,11.8,34.6,25.7,20.5l326.4-331
	c10.4-10.5,2.8-28.3-12-28.1c-199.3,2.5-398.6,5-597.9,7.4c-6.1,0.1-11.6,3.5-14.4,8.8c-5.1,9.6-10.1,19.2-15.2,28.7
	C292.7,555,300.6,568.3,313.1,568.3z"/>
</svg>
