<svg id="newRaio" xmlns="http://www.w3.org/2000/svg" viewBox="0 0 698.93 649.59">
  <defs>
    <style>
      .cls-1 {
        fill: #ffe066;
      }
    </style>
  </defs>
  <title>new-raio</title>
  <path class="cls-1" d="M326.42,10,4.65,337.65a14.82,14.82,0,0,0-4.29,9.76c-.28,7,2.44,17,20.4,16.78l465.87-5.8a14.53,14.53,0,0,1,9.33,3.1c3.5,2.83,6.62,8,4,17.4-4.58,16.29-136.28,216.67-156,246.62a14.81,14.81,0,0,0-2.4,9.74c.83,7.59,8.2,21.51,24.36,12.84a22.71,22.71,0,0,0,5.32-4.2L694.76,315.35a14.86,14.86,0,0,0,4.05-7.72c1.25-6.78,1-18.29-14.39-20.46a13.79,13.79,0,0,0-2.09-.12l-468.08,5.8a14.81,14.81,0,0,1-14.69-11.06c-.78-3.23-.56-7.14,1.71-11.71C208.32,255.82,354.22,29.3,356.88,25c3.29-5.38,6.54-25.16-12.21-23.63C337.63,1.32,331.35,5,326.42,10Z" transform="translate(-0.34 -1.25)"/>
</svg>
