<svg xmlns="http://www.w3.org/2000/svg" viewBox="0 0 222.58 150">
  <defs>
    <style>
      .cls-1 {
        fill: #f25f5c;
      }

      .cls-2 {
        font-size: 20px;
        fill: #eee;
        font-family: GoogleSans-Bold, Google Sans;
        font-weight: 700;
      }

      .cls-3 {
        letter-spacing: -0.01em;
      }

      .cls-4 {
        letter-spacing: -0.02em;
      }

      .cls-5 {
        letter-spacing: -0.03em;
      }

      .cls-6 {
        letter-spacing: 0em;
      }

      .cls-7 {
        letter-spacing: 0em;
      }

      .cls-8 {
        letter-spacing: -0.01em;
      }

      .cls-9 {
        letter-spacing: 0.01em;
      }

      .cls-10 {
        letter-spacing: -0.01em;
      }

      .cls-11 {
        letter-spacing: 0em;
      }

      .cls-12 {
        letter-spacing: -0.02em;
      }

      .cls-13 {
        letter-spacing: -0.03em;
      }

      .cls-14 {
        letter-spacing: -0.02em;
      }

      .cls-15 {
        letter-spacing: -0.01em;
      }
    </style>
  </defs>
  <title>python</title>
  <g id="Layer_2" data-name="Layer 2">
    <g id="python">
      <g id="quadro">
        <rect class="cls-1" width="222.58" height="150"/>
        <text class="cls-2" transform="translate(32.98 33.17)"><tspan class="cls-3">E</tspan><tspan class="cls-4" x="11.66" y="0">n</tspan><tspan x="23.14" y="0">t</tspan><tspan class="cls-5" x="31.5" y="0">r</tspan><tspan class="cls-3" x="39.44" y="0">e</tspan><tspan class="cls-6" x="50.98" y="0">vi</tspan><tspan class="cls-7" x="68.06" y="0">s</tspan><tspan class="cls-8" x="78.06" y="0">t</tspan><tspan x="86.22" y="0">a </tspan><tspan class="cls-9" x="102.12" y="0">s</tspan><tspan class="cls-7" x="112.32" y="0">o</tspan><tspan class="cls-3" x="124.52" y="0">b</tspan><tspan class="cls-5" x="136.94" y="0">r</tspan><tspan x="144.88" y="0">e</tspan></text>
        <text class="cls-2" transform="translate(12.78 55.01)"><tspan class="cls-10">D</tspan><tspan class="cls-11" x="14.46" y="0">es</tspan><tspan x="36.5" y="0">e</tspan><tspan class="cls-12" x="48.24" y="0">n</tspan><tspan class="cls-10" x="59.82" y="0">v</tspan><tspan class="cls-7" x="71.08" y="0">o</tspan><tspan x="83.28" y="0">lvime</tspan><tspan class="cls-13" x="135.52" y="0">n</tspan><tspan class="cls-14" x="147" y="0">t</tspan><tspan x="155" y="0">o </tspan><tspan class="cls-15" x="171.98" y="0">d</tspan><tspan x="184.5" y="0">e</tspan></text>
        <text class="cls-2" transform="translate(30.9 78.01)"><tspan class="cls-7">j</tspan><tspan x="5.42" y="0">o</tspan><tspan class="cls-15" x="17.72" y="0">go</tspan><tspan x="42.3" y="0">s em </tspan><tspan class="cls-12" x="91.72" y="0">p</tspan><tspan x="103.86" y="0">y</tspan><tspan class="cls-9" x="115.42" y="0">t</tspan><tspan x="123.88" y="0">h</tspan><tspan class="cls-8" x="135.92" y="0">o</tspan><tspan x="148.02" y="0">n</tspan></text>
      </g>
    </g>
  </g>
</svg>
